 http://img545.imageshack.us/img545/5282/x2011.jpg

Country.......: Australia
Genre.........: Thriller
Date release..: 2011 [World]
Director......: Jon Hewitt
Writers.......: Jon Hewitt, Belinda McClory
Duration......: 90 min.
More..........: http://www.imdb.com/title/tt1661099
Trailer.......: http://www.imdb.com/video/screenplay/vi3106250009
Trailer.......:

Pilot :
Directed by the creator of Acolytes. X is a thriller about love, chance, and escape the world's oldest profession. All this experience Holly (Viva Bianca) and her younger friend Shay (Hanna Mangan Lawrence), but one night will change their lives forever.

Cats :
Viva Bianca   	 ...  	Holly Rowe
Wayne Blair 	... 	Bob
Peter Docker 	... 	Ligurian
Eamon Farren 	... 	Harry
Jordan Fielding 	... 	Rocky
Burnetta Hampson 	... 	Kelly
Natasha Herbert 	... 	Mother
Rebecca Irwin 	... 	Karlene
Simonne Kranz 	... 	Client
Hanna Mangan Lawrence 	... 	Shay Ryan
Belinda McClory 	... 	Katherine
Darren Moss 	... 	Giles
Joshua Payne 	... 	Stick
Anthony Phelan 	... 	Customer
Stephen Phillips 	... 	Bennett 

Data Technical :
!!! SAMPLE !!!
Audio.....: English
Subtitles.: None
Format                           : AVI
Format/Info                      : Audio Video Interleave
File size                        : 1.43 GiB
Duration                         : 1h 29mn
Overall bit rate                 : 2 280 Kbps
Writing application              : Nandub v1.0rc2
Writing library                  : Nandub build 1853/release
Video
ID                               : 0
Format                           : MPEG-4 Visual
Format profile                   : Advanced Simple@L5
Format settings, BVOP            : Yes
Format settings, QPel            : Yes
Format settings, GMC             : No warppoints
Format settings, Matrix          : Default (H.263)
Muxing mode                      : Packed bitstream
Codec ID                         : XVID
Codec ID/Hint                    : XviD
Duration                         : 1h 29mn
Bit rate                         : 1 823 Kbps
Width                            : 720 pixels
Height                           : 304 pixels
Display aspect ratio             : 2.35:1
Frame rate                       : 23.976 fps
Color space                      : YUV
Chroma subsampling               : 4:2:0
Bit depth                        : 8 bits
Scan type                        : Progressive
Bits/(Pixel*Frame)               : 0.347
Stream size                      : 1.14 GiB (80%)
Writing library                  : XviD 1.2.1 (UTC 2008-12-04)
Audio
ID                               : 1
Format                           : AC-3
Format/Info                      : Audio Coding 3
Mode extension                   : CM (complete main)
Codec ID                         : 2000
Duration                         : 1h 29mn
Bit rate mode                    : Constant
Bit rate                         : 448 Kbps
Channel(s)                       : 6 channels
Channel positions                : Front: L C R, Side: L R, LFE
Sampling rate                    : 48.0 KHz
Bit depth                        : 16 bits
Stream size                      : 288 MiB (20%)
Alignment                        : Split accross interleaves
Interleave, duration             : 42 ms (1.00 video frame)
Interleave, preload duration     : 500 ms

Screen : 
http://img217.imageshack.us/img217/9631/x2011s1.jpg 
http://img268.imageshack.us/img268/1016/x2011s2.jpg 
http://img88.imageshack.us/img88/1482/x2011s3.jpg 
http://img193.imageshack.us/img193/5294/x2011s4.jpg 
http://img710.imageshack.us/img710/4774/x2011s5.jpg